<?xml version="1.0" standalone="no"?>
<!DOCTYPE svg PUBLIC "-//W3C//DTD SVG 20010904//EN"
 "http://www.w3.org/TR/2001/REC-SVG-20010904/DTD/svg10.dtd">
<svg version="1.0" xmlns="http://www.w3.org/2000/svg"
 width="1024.000000pt" height="1024.000000pt" viewBox="0 0 1024.000000 1024.000000"
 preserveAspectRatio="xMidYMid meet">

<g transform="translate(0.000000,1024.000000) scale(0.100000,-0.100000)"
fill="#000000" stroke="none">
<path d="M7809 8966 c-125 -35 -239 -128 -306 -251 l-38 -70 -2075 -5 c-1990
-5 -2077 -6 -2130 -24 -269 -91 -440 -323 -440 -599 0 -156 -10 -135 444 -911
87 -148 160 -276 164 -285 3 -9 22 -41 42 -71 20 -30 177 -297 349 -593 211
-361 312 -543 308 -556 -2 -11 -88 -164 -191 -340 -102 -176 -186 -323 -186
-326 0 -3 32 -5 70 -5 81 0 136 22 168 67 27 39 112 182 352 593 37 63 106
180 153 260 46 80 95 163 107 185 12 22 66 117 120 210 53 94 133 233 177 310
73 129 533 923 695 1200 39 66 78 131 87 145 10 14 35 59 56 100 28 53 62 98
119 155 84 83 151 125 270 170 l66 25 640 0 640 0 31 -62 c40 -80 124 -167
198 -207 198 -105 421 -73 577 83 153 153 186 365 88 558 -56 110 -183 211
-308 244 -63 17 -185 17 -247 0z m247 -252 c48 -27 91 -75 111 -121 17 -42 17
-144 -1 -187 -54 -130 -215 -188 -343 -123 -196 100 -167 395 44 453 62 17
137 9 189 -22z m-2592 -384 c99 -6 181 -12 184 -15 3 -2 -4 -16 -14 -31 -30
-42 -32 -46 -54 -96 -11 -26 -24 -50 -30 -53 -5 -3 -17 -23 -27 -43 -9 -20
-33 -62 -52 -92 -55 -84 -58 -91 -91 -157 -17 -34 -35 -65 -40 -68 -5 -3 -17
-23 -27 -43 -9 -20 -32 -59 -50 -86 -18 -26 -33 -52 -33 -57 0 -4 -12 -25 -26
-46 -14 -21 -34 -57 -45 -80 -10 -23 -23 -44 -28 -47 -5 -3 -23 -34 -41 -68
-18 -35 -39 -70 -46 -79 -8 -9 -11 -19 -7 -22 3 -4 1 -7 -5 -7 -7 0 -12 -6
-12 -14 0 -7 -7 -19 -15 -26 -8 -7 -27 -37 -41 -69 -15 -31 -34 -64 -43 -74
-8 -10 -29 -44 -45 -77 -17 -32 -49 -88 -71 -125 -22 -37 -51 -88 -65 -113
-14 -25 -30 -47 -37 -49 -15 -5 -40 29 -171 232 -186 290 -500 821 -585 990
-98 197 -89 330 28 393 74 40 117 42 725 36 322 -3 666 -9 764 -14z"/>
<path d="M5951 7318 c-38 -74 -39 -123 -8 -187 30 -59 127 -230 282 -496 67
-115 185 -318 262 -450 77 -132 178 -304 224 -383 46 -79 100 -171 120 -205
19 -34 89 -154 155 -267 143 -243 365 -626 421 -725 22 -38 64 -110 93 -160
220 -376 230 -395 257 -480 14 -46 18 -89 17 -185 -1 -155 -10 -182 -131 -390
-49 -85 -183 -317 -298 -515 -114 -198 -214 -367 -222 -376 -11 -13 -39 -17
-127 -21 -104 -4 -118 -7 -187 -40 -179 -86 -279 -240 -279 -432 0 -190 92
-343 259 -429 206 -107 467 -50 605 134 65 87 88 154 94 274 5 115 -14 189
-72 279 -18 28 -35 56 -39 62 -3 6 15 48 42 95 87 154 523 904 541 929 9 14
33 54 52 90 35 64 72 127 428 740 101 173 224 385 273 470 50 85 153 263 230
395 77 132 183 314 235 405 52 91 114 197 137 235 67 111 112 207 129 272 20
77 20 230 1 303 -51 192 -206 362 -395 431 l-65 24 -1292 0 c-1149 0 -1294 2
-1308 15 -8 9 -87 139 -174 290 -210 362 -209 360 -220 360 -5 0 -23 -28 -40
-62z m2694 -1611 c164 -54 215 -160 153 -314 -30 -73 -565 -980 -713 -1208
-47 -71 -89 -125 -99 -125 -2 0 -18 28 -36 63 -57 114 -86 166 -101 184 -8 10
-21 32 -29 48 -8 17 -27 46 -42 66 -15 20 -28 40 -28 43 0 14 -40 95 -50 101
-5 3 -21 30 -34 60 -14 29 -30 56 -36 60 -6 4 -22 31 -36 61 -13 30 -29 54
-34 54 -6 0 -10 6 -10 13 0 6 -23 47 -50 89 -28 43 -50 82 -50 88 0 6 -12 29
-27 53 -15 23 -35 58 -44 78 -9 20 -26 45 -37 55 -11 10 -23 30 -27 44 -4 14
-17 41 -30 60 -43 67 -85 140 -85 149 0 4 -18 36 -40 70 -22 34 -40 65 -40 69
0 4 -13 23 -28 42 -44 54 -55 77 -37 83 17 7 268 26 390 31 50 1 329 2 620 1
464 -1 536 -3 580 -18z m-1552 -3477 c209 -78 222 -357 22 -455 -56 -27 -157
-26 -210 2 -90 48 -139 127 -139 223 0 105 59 191 160 230 63 25 101 25 167 0z"/>
<path d="M1717 6520 c-115 -20 -247 -107 -310 -203 -100 -152 -111 -322 -32
-483 85 -174 234 -264 439 -264 l101 0 26 -43 c15 -23 102 -172 194 -332 92
-159 198 -342 235 -405 37 -63 80 -137 96 -165 15 -27 46 -81 69 -120 46 -76
566 -972 607 -1045 14 -25 78 -134 142 -243 64 -108 129 -221 145 -250 27 -49
340 -587 475 -815 74 -127 135 -196 220 -251 102 -67 191 -94 322 -99 98 -4
121 -1 195 22 102 31 168 68 242 136 55 51 88 97 199 290 199 342 620 1071
664 1150 30 52 148 257 262 455 l208 360 389 5 c441 6 420 1 363 86 -61 89
-62 90 -340 98 -134 4 -947 4 -1808 1 -1739 -8 -1639 -11 -1783 59 -84 40
-196 123 -231 169 -14 18 -71 111 -127 207 -235 403 -496 856 -501 871 -4 10
7 35 28 64 125 177 107 436 -43 596 -111 119 -287 178 -446 149z m174 -241
c46 -12 114 -71 141 -123 27 -54 29 -156 4 -206 -25 -48 -73 -98 -121 -123
-51 -27 -164 -29 -211 -4 -83 44 -131 110 -141 197 -8 69 12 132 59 185 76 86
147 105 269 74z m3109 -2125 c0 -56 -489 -945 -676 -1229 -103 -157 -178 -215
-277 -215 -66 0 -129 38 -181 108 -56 76 -613 1057 -710 1249 -20 40 -36 79
-36 88 0 13 104 15 940 15 863 0 940 -1 940 -16z"/>
<path d="M5047 6153 c-4 -3 -7 -258 -7 -565 l0 -558 140 0 140 0 0 199 c0 153
3 201 13 210 9 7 94 12 243 13 l229 3 0 110 0 110 -240 5 -240 5 -3 114 c-2
72 1 118 8 125 7 7 120 13 328 16 l317 5 0 105 0 105 -461 3 c-253 1 -464 -1
-467 -5z"/>
</g>
</svg>
