<svg version="1.1" id="Layer_1" xmlns="http://www.w3.org/2000/svg" xmlns:xlink="http://www.w3.org/1999/xlink" x="0px" y="0px"
	 width="100%" viewBox="0 0 2024 2024" enable-background="new 0 0 2024 2024" xml:space="preserve">
<path fill="#FFFFFF" opacity="1.000000" stroke="none" 
	d="
M1872.000000,2025.000000 
	C1248.000000,2025.000000 624.500000,2025.000000 1.000000,2025.000000 
	C1.000000,1350.333374 1.000000,675.666687 1.000000,1.000000 
	C675.666687,1.000000 1350.333374,1.000000 2025.000000,1.000000 
	C2025.000000,675.666687 2025.000000,1350.333374 2025.000000,2025.000000 
	C1974.166626,2025.000000 1923.333374,2025.000000 1872.000000,2025.000000 
M272.711670,1056.865479 
	C273.134674,1056.912354 273.557648,1056.959106 274.380463,1057.564209 
	C319.667755,1080.276978 364.968842,1102.962158 410.236542,1125.713867 
	C432.826447,1137.067749 455.346161,1148.561279 477.928680,1159.929932 
	C479.815308,1160.879761 481.939362,1161.357910 484.069946,1162.375244 
	C484.183594,1162.419678 484.297241,1162.464233 484.410950,1162.508667 
	C484.289490,1162.326416 484.168060,1162.144043 483.960693,1161.266724 
	C483.543152,1160.556885 483.174103,1159.812988 482.701141,1159.142212 
	C466.534241,1136.218262 450.378571,1113.286377 434.176300,1090.387451 
	C418.071564,1067.626587 401.870117,1044.933716 385.815094,1022.137878 
	C380.674835,1014.839355 375.865936,1007.307495 371.330231,999.331543 
	C423.845551,968.453186 476.360870,937.574829 528.876221,906.696472 
	C527.152100,906.315796 525.769592,906.685669 524.469421,907.246338 
	C491.711670,921.375061 458.977661,935.558899 426.206940,949.657349 
	C403.200500,959.555054 380.146057,969.341187 356.414154,979.001282 
	C355.577057,978.260071 354.557343,977.647949 353.929260,976.759033 
	C330.936859,944.216064 307.990356,911.640747 285.010376,879.088989 
	C281.151184,873.622437 277.168304,868.243225 273.027100,862.526123 
	C271.972931,863.806763 271.409821,864.402527 270.945648,865.067383 
	C245.756134,901.146362 220.597610,937.247070 195.353363,973.287720 
	C193.121872,976.473633 190.336014,979.271179 187.075012,982.108276 
	C166.148178,973.995850 145.221344,965.883423 124.294502,957.771057 
	C124.138222,958.089478 123.981934,958.407898 123.825645,958.726318 
	C142.353455,970.996216 160.881271,983.266052 179.038467,996.202515 
	C178.445908,997.204956 177.914215,998.249695 177.251968,999.203796 
	C157.641022,1027.457397 138.046860,1055.722778 118.385216,1083.941162 
	C104.139938,1104.385986 89.749130,1124.729492 75.541664,1145.200317 
	C71.778152,1150.622925 68.452591,1156.349365 64.610672,1162.067993 
	C64.758476,1162.066772 64.906288,1162.065552 65.781998,1161.982300 
	C67.173096,1161.445801 68.625336,1161.029053 69.946198,1160.354858 
	C93.324257,1148.425293 116.653152,1136.399048 140.059509,1124.525513 
	C176.537262,1106.021118 213.088333,1087.661255 249.553238,1069.131592 
	C257.184845,1065.253662 264.577179,1060.904541 272.711670,1056.865479 
M1678.996338,943.483521 
	C1678.996338,947.229004 1678.996338,950.974487 1678.996338,954.848022 
	C1681.578491,954.848022 1683.401489,954.848022 1685.224365,954.848083 
	C1729.712402,954.848938 1774.200562,954.791443 1818.688232,954.928284 
	C1823.959961,954.944519 1829.382202,955.418640 1834.473267,956.710510 
	C1863.565430,964.092896 1880.901367,991.171082 1877.041260,1022.698303 
	C1873.758667,1049.508179 1848.311279,1071.368896 1819.938477,1071.460693 
	C1782.948730,1071.580322 1745.958496,1071.495483 1708.968384,1071.479980 
	C1707.547974,1071.479370 1706.127686,1071.285278 1704.302124,1071.151733 
	C1704.302124,1047.245605 1704.302124,1023.813110 1704.302124,1000.509644 
	C1695.613770,1000.509644 1687.375000,1000.509644 1679.224854,1000.509644 
	C1679.224854,1032.802002 1679.224854,1064.734985 1679.224854,1097.003662 
	C1680.412598,1097.003662 1681.374634,1097.003662 1682.336792,1097.003662 
	C1728.990967,1097.003662 1775.645020,1097.034180 1822.299072,1096.950928 
	C1826.436035,1096.943604 1830.625244,1096.488770 1834.699707,1095.745483 
	C1877.843994,1087.875244 1906.874756,1048.823975 1902.933228,1004.097534 
	C1899.253296,962.338928 1862.424194,929.163025 1819.709961,929.152893 
	C1774.555420,929.142151 1729.400879,929.151367 1684.246338,929.151917 
	C1682.629883,929.151978 1681.013306,929.151978 1678.996338,929.151978 
	C1678.996338,933.905945 1678.996338,938.200684 1678.996338,943.483521 
M1195.474487,1011.002380 
	C1230.564575,1038.812744 1265.650757,1066.627808 1300.759766,1094.414429 
	C1302.023438,1095.414429 1303.487671,1096.820190 1304.897217,1096.866943 
	C1312.318726,1097.112549 1319.752441,1096.981934 1327.096680,1096.981934 
	C1327.096680,1040.737061 1327.096680,985.039490 1327.096680,929.435303 
	C1318.428833,929.435303 1310.172607,929.435303 1301.329346,929.435303 
	C1301.329346,973.550476 1301.329346,1017.384094 1301.329346,1062.135010 
	C1298.459106,1059.924561 1296.379517,1058.362671 1294.341919,1056.748169 
	C1241.768311,1015.087830 1189.202881,973.417175 1136.607300,931.784485 
	C1135.239502,930.701721 1133.576172,929.337097 1132.005981,929.277405 
	C1124.897339,929.007263 1117.772705,929.159302 1110.450439,929.159302 
	C1110.450439,985.341125 1110.450439,1041.039551 1110.450439,1096.649658 
	C1119.146118,1096.649658 1127.536865,1096.649658 1136.240967,1096.649658 
	C1136.240967,1052.412109 1136.240967,1008.527527 1136.240967,964.021545 
	C1156.138428,979.796814 1175.533203,995.173462 1195.474487,1011.002380 
M1566.499512,1097.001831 
	C1572.598022,1097.001831 1578.696655,1097.001831 1584.665283,1097.001831 
	C1584.665283,1088.200684 1584.665283,1079.979614 1584.665283,1071.322998 
	C1518.412354,1071.322998 1452.494751,1071.322998 1386.493164,1071.322998 
	C1386.493164,1055.983887 1386.493164,1041.093018 1386.493164,1025.890137 
	C1452.759399,1025.890137 1518.697998,1025.890137 1584.687256,1025.890137 
	C1584.687256,1017.186584 1584.687256,1008.801941 1584.687256,1000.337646 
	C1509.932739,1000.337646 1435.493042,1000.337646 1360.775391,1000.337646 
	C1360.775391,1032.605225 1360.775391,1064.686401 1360.775391,1097.001831 
	C1429.185059,1097.001831 1497.342285,1097.001831 1566.499512,1097.001831 
M875.172241,1031.672729 
	C909.093323,997.751099 943.014404,963.829407 977.691956,929.151245 
	C966.302307,929.151245 956.316589,929.332275 946.343567,929.056946 
	C942.657532,928.955139 940.248962,930.222046 937.721252,932.758484 
	C895.274719,975.353821 852.508911,1017.634216 810.367737,1060.528442 
	C799.660217,1071.427368 787.471863,1072.421753 773.283386,1071.048218 
	C773.283386,1023.675415 773.283386,976.503845 773.283386,929.407227 
	C764.554932,929.407227 756.455505,929.407227 748.275330,929.407227 
	C748.275330,985.362671 748.275330,1041.062866 748.275330,1097.001953 
	C761.686218,1097.001953 774.821350,1097.062256 787.955688,1096.985840 
	C802.418579,1096.901733 814.915710,1091.946655 825.203430,1081.645142 
	C841.682556,1065.143921 858.181702,1048.662598 875.172241,1031.672729 
M980.066284,999.566284 
	C991.611572,988.020081 1003.476746,976.772278 1014.607910,964.839844 
	C1024.788086,953.926758 1037.276367,954.144043 1050.769287,955.254578 
	C1050.769287,1002.676575 1050.769287,1049.742310 1050.769287,1096.658325 
	C1059.426270,1096.658325 1067.665771,1096.658325 1075.757690,1096.658325 
	C1075.757690,1040.728027 1075.757690,985.140503 1075.757690,929.155823 
	C1062.397949,929.155823 1049.275513,929.012634 1036.157471,929.194092 
	C1021.573792,929.395874 1008.911804,934.435791 998.496826,944.856567 
	C949.148682,994.232422 899.780701,1043.588379 850.393127,1092.924683 
	C849.279663,1094.036987 847.848328,1094.831177 846.565308,1095.773682 
	C846.851318,1096.182739 847.137329,1096.591675 847.423340,1097.000732 
	C857.850769,1097.000732 868.283264,1097.172974 878.701721,1096.867065 
	C881.007385,1096.799561 883.822083,1095.604736 885.459656,1093.979248 
	C916.912720,1062.759644 948.224854,1031.398193 980.066284,999.566284 
M644.170410,974.670593 
	C646.645752,972.195801 649.391602,969.935242 651.550293,967.209717 
	C661.524719,954.615845 674.966919,953.453430 689.822754,955.357056 
	C689.822754,1002.438110 689.822754,1049.511963 689.822754,1096.733643 
	C698.459412,1096.733643 706.690918,1096.733643 714.769897,1096.733643 
	C714.769897,1040.761475 714.769897,985.057373 714.769897,929.155701 
	C701.559265,929.155701 688.743042,929.116638 675.927063,929.165833 
	C660.915588,929.223389 647.960999,934.440735 637.325500,945.065308 
	C587.689758,994.649902 538.090088,1044.270386 488.489349,1093.890137 
	C487.656830,1094.723022 486.974243,1095.705811 485.906647,1097.000854 
	C496.742981,1097.000854 506.903351,1096.845093 517.054321,1097.086670 
	C520.525757,1097.169312 522.878174,1096.077148 525.294983,1093.651611 
	C564.700195,1054.104858 604.195496,1014.647888 644.170410,974.670593 
M1517.500000,929.145203 
	C1465.275269,929.145203 1413.050415,929.145203 1360.814575,929.145203 
	C1360.814575,938.113892 1360.814575,946.369568 1360.814575,954.521240 
	C1435.704590,954.521240 1510.262329,954.521240 1584.702148,954.521240 
	C1584.702148,945.928162 1584.702148,937.675171 1584.702148,929.145203 
	C1562.431030,929.145203 1540.465576,929.145203 1517.500000,929.145203 
M1632.496704,1097.008911 
	C1636.571533,1097.008911 1640.646240,1097.008911 1644.598145,1097.008911 
	C1644.598145,1040.709839 1644.598145,985.172424 1644.598145,929.389832 
	C1636.110474,929.389832 1627.882812,929.389832 1619.398560,929.389832 
	C1619.398560,985.296509 1619.398560,1040.957397 1619.398560,1097.008911 
	C1623.583740,1097.008911 1627.544189,1097.008911 1632.496704,1097.008911 
M1937.499023,1017.499634 
	C1937.499023,1043.928101 1937.499023,1070.356567 1937.499023,1096.695801 
	C1946.334595,1096.695801 1954.580322,1096.695801 1962.627197,1096.695801 
	C1962.627197,1040.697876 1962.627197,985.005493 1962.627197,929.404419 
	C1954.158325,929.404419 1946.065918,929.404419 1937.499146,929.404419 
	C1937.499146,958.601868 1937.499146,987.550720 1937.499023,1017.499634 
M122.509155,957.826294 
	C122.632484,957.730896 122.755821,957.635437 122.879189,957.539978 
	C122.769829,957.429016 122.665733,957.237305 122.549622,957.229675 
	C122.432823,957.222107 122.304100,957.397644 122.509155,957.826294 
z"/>
<path fill="#D0D0D0" opacity="1.000000" stroke="none" 
	d="
M370.905426,999.882385 
	C375.865936,1007.307495 380.674835,1014.839355 385.815094,1022.137878 
	C401.870117,1044.933716 418.071564,1067.626587 434.176300,1090.387451 
	C450.378571,1113.286377 466.534241,1136.218262 482.701141,1159.142212 
	C483.174103,1159.812988 483.543152,1160.556885 483.979034,1161.636475 
	C483.997375,1162.006104 483.953094,1162.055298 483.953094,1162.055298 
	C481.939362,1161.357910 479.815308,1160.879761 477.928680,1159.929932 
	C455.346161,1148.561279 432.826447,1137.067749 410.236542,1125.713867 
	C364.968842,1102.962158 319.667755,1080.276978 274.372894,1056.998535 
	C281.075653,1052.589111 287.785980,1048.745361 294.868439,1044.999023 
	C327.262695,1060.941284 359.279816,1076.796631 391.323547,1092.597778 
	C392.764648,1093.308350 394.447510,1093.528564 396.057556,1094.121948 
	C396.179871,1094.321167 396.262390,1094.375732 396.344940,1094.430298 
	C396.222809,1094.292236 396.100647,1094.154175 395.859741,1093.696045 
	C380.320251,1071.593140 364.946014,1049.777222 349.433838,1028.059814 
	C346.791931,1024.361206 343.558838,1021.084839 340.745850,1017.285034 
	C336.155640,1009.800720 331.451599,1002.622131 326.636871,995.518555 
	C326.066193,994.676636 324.889404,994.245544 323.923096,993.299072 
	C323.331268,991.942322 322.931000,990.824951 322.270630,989.891418 
	C308.463104,970.371399 294.638397,950.863464 280.782806,931.377441 
	C278.549622,928.236694 276.153412,925.211914 273.577271,921.794922 
	C255.930466,946.830017 238.813812,971.113098 221.336761,995.314087 
	C209.920120,990.904419 198.863892,986.576782 187.807648,982.249023 
	C190.336014,979.271179 193.121872,976.473633 195.353363,973.287720 
	C220.597610,937.247070 245.756134,901.146362 270.945648,865.067383 
	C271.409821,864.402527 271.972931,863.806763 273.027100,862.526123 
	C277.168304,868.243225 281.151184,873.622437 285.010376,879.088989 
	C307.990356,911.640747 330.936859,944.216064 353.929260,976.759033 
	C354.557343,977.647949 355.577057,978.260071 356.629272,979.364868 
	C361.531372,986.446411 366.218384,993.164368 370.905426,999.882385 
z"/>
<path fill="#020202" opacity="1.000000" stroke="none" 
	d="
M1678.996338,942.989502 
	C1678.996338,938.200684 1678.996338,933.905945 1678.996338,929.151978 
	C1681.013306,929.151978 1682.629883,929.151978 1684.246338,929.151917 
	C1729.400879,929.151367 1774.555420,929.142151 1819.709961,929.152893 
	C1862.424194,929.163025 1899.253296,962.338928 1902.933228,1004.097534 
	C1906.874756,1048.823975 1877.843994,1087.875244 1834.699707,1095.745483 
	C1830.625244,1096.488770 1826.436035,1096.943604 1822.299072,1096.950928 
	C1775.645020,1097.034180 1728.990967,1097.003662 1682.336792,1097.003662 
	C1681.374634,1097.003662 1680.412598,1097.003662 1679.224854,1097.003662 
	C1679.224854,1064.734985 1679.224854,1032.802002 1679.224854,1000.509644 
	C1687.375000,1000.509644 1695.613770,1000.509644 1704.302124,1000.509644 
	C1704.302124,1023.813110 1704.302124,1047.245605 1704.302124,1071.151733 
	C1706.127686,1071.285278 1707.547974,1071.479370 1708.968384,1071.479980 
	C1745.958496,1071.495483 1782.948730,1071.580322 1819.938477,1071.460693 
	C1848.311279,1071.368896 1873.758667,1049.508179 1877.041260,1022.698303 
	C1880.901367,991.171082 1863.565430,964.092896 1834.473267,956.710510 
	C1829.382202,955.418640 1823.959961,954.944519 1818.688232,954.928284 
	C1774.200562,954.791443 1729.712402,954.848938 1685.224365,954.848083 
	C1683.401489,954.848022 1681.578491,954.848022 1678.996338,954.848022 
	C1678.996338,950.974487 1678.996338,947.229004 1678.996338,942.989502 
z"/>
<path fill="#020202" opacity="1.000000" stroke="none" 
	d="
M1195.201172,1010.776245 
	C1175.533203,995.173462 1156.138428,979.796814 1136.240967,964.021545 
	C1136.240967,1008.527527 1136.240967,1052.412109 1136.240967,1096.649658 
	C1127.536865,1096.649658 1119.146118,1096.649658 1110.450439,1096.649658 
	C1110.450439,1041.039551 1110.450439,985.341125 1110.450439,929.159302 
	C1117.772705,929.159302 1124.897339,929.007263 1132.005981,929.277405 
	C1133.576172,929.337097 1135.239502,930.701721 1136.607300,931.784485 
	C1189.202881,973.417175 1241.768311,1015.087830 1294.341919,1056.748169 
	C1296.379517,1058.362671 1298.459106,1059.924561 1301.329346,1062.135010 
	C1301.329346,1017.384094 1301.329346,973.550476 1301.329346,929.435303 
	C1310.172607,929.435303 1318.428833,929.435303 1327.096680,929.435303 
	C1327.096680,985.039490 1327.096680,1040.737061 1327.096680,1096.981934 
	C1319.752441,1096.981934 1312.318726,1097.112549 1304.897217,1096.866943 
	C1303.487671,1096.820190 1302.023438,1095.414429 1300.759766,1094.414429 
	C1265.650757,1066.627808 1230.564575,1038.812744 1195.201172,1010.776245 
z"/>
<path fill="#010101" opacity="1.000000" stroke="none" 
	d="
M1565.999512,1097.001831 
	C1497.342285,1097.001831 1429.185059,1097.001831 1360.775391,1097.001831 
	C1360.775391,1064.686401 1360.775391,1032.605225 1360.775391,1000.337646 
	C1435.493042,1000.337646 1509.932739,1000.337646 1584.687256,1000.337646 
	C1584.687256,1008.801941 1584.687256,1017.186584 1584.687256,1025.890137 
	C1518.697998,1025.890137 1452.759399,1025.890137 1386.493164,1025.890137 
	C1386.493164,1041.093018 1386.493164,1055.983887 1386.493164,1071.322998 
	C1452.494751,1071.322998 1518.412354,1071.322998 1584.665283,1071.322998 
	C1584.665283,1079.979614 1584.665283,1088.200684 1584.665283,1097.001831 
	C1578.696655,1097.001831 1572.598022,1097.001831 1565.999512,1097.001831 
z"/>
<path fill="#010101" opacity="1.000000" stroke="none" 
	d="
M874.922302,1031.922729 
	C858.181702,1048.662598 841.682556,1065.143921 825.203430,1081.645142 
	C814.915710,1091.946655 802.418579,1096.901733 787.955688,1096.985840 
	C774.821350,1097.062256 761.686218,1097.001953 748.275330,1097.001953 
	C748.275330,1041.062866 748.275330,985.362671 748.275330,929.407227 
	C756.455505,929.407227 764.554932,929.407227 773.283386,929.407227 
	C773.283386,976.503845 773.283386,1023.675415 773.283386,1071.048218 
	C787.471863,1072.421753 799.660217,1071.427368 810.367737,1060.528442 
	C852.508911,1017.634216 895.274719,975.353821 937.721252,932.758484 
	C940.248962,930.222046 942.657532,928.955139 946.343567,929.056946 
	C956.316589,929.332275 966.302307,929.151245 977.691956,929.151245 
	C943.014404,963.829407 909.093323,997.751099 874.922302,1031.922729 
z"/>
<path fill="#010101" opacity="1.000000" stroke="none" 
	d="
M979.816162,999.816162 
	C948.224854,1031.398193 916.912720,1062.759644 885.459656,1093.979248 
	C883.822083,1095.604736 881.007385,1096.799561 878.701721,1096.867065 
	C868.283264,1097.172974 857.850769,1097.000732 847.423340,1097.000732 
	C847.137329,1096.591675 846.851318,1096.182739 846.565308,1095.773682 
	C847.848328,1094.831177 849.279663,1094.036987 850.393127,1092.924683 
	C899.780701,1043.588379 949.148682,994.232422 998.496826,944.856567 
	C1008.911804,934.435791 1021.573792,929.395874 1036.157471,929.194092 
	C1049.275513,929.012634 1062.397949,929.155823 1075.757690,929.155823 
	C1075.757690,985.140503 1075.757690,1040.728027 1075.757690,1096.658325 
	C1067.665771,1096.658325 1059.426270,1096.658325 1050.769287,1096.658325 
	C1050.769287,1049.742310 1050.769287,1002.676575 1050.769287,955.254578 
	C1037.276367,954.144043 1024.788086,953.926758 1014.607910,964.839844 
	C1003.476746,976.772278 991.611572,988.020081 979.816162,999.816162 
z"/>
<path fill="#010101" opacity="1.000000" stroke="none" 
	d="
M643.920471,974.920654 
	C604.195496,1014.647888 564.700195,1054.104858 525.294983,1093.651611 
	C522.878174,1096.077148 520.525757,1097.169312 517.054321,1097.086670 
	C506.903351,1096.845093 496.742981,1097.000854 485.906647,1097.000854 
	C486.974243,1095.705811 487.656830,1094.723022 488.489349,1093.890137 
	C538.090088,1044.270386 587.689758,994.649902 637.325500,945.065308 
	C647.960999,934.440735 660.915588,929.223389 675.927063,929.165833 
	C688.743042,929.116638 701.559265,929.155701 714.769897,929.155701 
	C714.769897,985.057373 714.769897,1040.761475 714.769897,1096.733643 
	C706.690918,1096.733643 698.459412,1096.733643 689.822754,1096.733643 
	C689.822754,1049.511963 689.822754,1002.438110 689.822754,955.357056 
	C674.966919,953.453430 661.524719,954.615845 651.550293,967.209717 
	C649.391602,969.935242 646.645752,972.195801 643.920471,974.920654 
z"/>
<path fill="#D0D0D0" opacity="1.000000" stroke="none" 
	d="
M64.925949,1161.936401 
	C68.452591,1156.349365 71.778152,1150.622925 75.541664,1145.200317 
	C89.749130,1124.729492 104.139938,1104.385986 118.385216,1083.941162 
	C138.046860,1055.722778 157.641022,1027.457397 177.251968,999.203796 
	C177.914215,998.249695 178.445908,997.204956 179.533661,996.001770 
	C189.470612,1002.092224 198.912384,1008.383423 208.070160,1014.906067 
	C189.494064,1041.082642 171.201996,1067.027710 152.909912,1092.972778 
	C155.101913,1093.245483 156.568481,1092.701660 157.961655,1092.010132 
	C167.191513,1087.427979 176.390762,1082.784180 185.627899,1078.217041 
	C206.625946,1067.834717 227.647858,1057.500610 248.632294,1047.090820 
	C250.214920,1046.305786 251.577667,1045.077515 253.375397,1044.113281 
	C259.832001,1048.371704 265.955841,1052.572144 272.079712,1056.772583 
	C264.577179,1060.904541 257.184845,1065.253662 249.553238,1069.131592 
	C213.088333,1087.661255 176.537262,1106.021118 140.059509,1124.525513 
	C116.653152,1136.399048 93.324257,1148.425293 69.946198,1160.354858 
	C68.625336,1161.029053 67.173096,1161.445801 65.387466,1161.989990 
	C64.992943,1161.997559 64.925941,1161.936401 64.925949,1161.936401 
z"/>
<path fill="#050505" opacity="1.000000" stroke="none" 
	d="
M1518.000000,929.145203 
	C1540.465576,929.145203 1562.431030,929.145203 1584.702148,929.145203 
	C1584.702148,937.675171 1584.702148,945.928162 1584.702148,954.521240 
	C1510.262329,954.521240 1435.704590,954.521240 1360.814575,954.521240 
	C1360.814575,946.369568 1360.814575,938.113892 1360.814575,929.145203 
	C1413.050415,929.145203 1465.275269,929.145203 1518.000000,929.145203 
z"/>
<path fill="#0208D5" opacity="1.000000" stroke="none" 
	d="
M272.395691,1056.819092 
	C265.955841,1052.572144 259.832001,1048.371704 253.131958,1043.866699 
	C237.821915,1033.932983 223.088043,1024.303833 208.354156,1014.674622 
	C198.912384,1008.383423 189.470612,1002.092224 179.718964,995.668457 
	C160.881271,983.266052 142.353455,970.996216 123.825645,958.726318 
	C123.981934,958.407898 124.138222,958.089478 124.294502,957.771057 
	C145.221344,965.883423 166.148178,973.995850 187.441345,982.178711 
	C198.863892,986.576782 209.920120,990.904419 221.610519,995.542969 
	C238.007462,1001.952515 253.743958,1008.121094 269.566895,1014.059387 
	C271.502808,1014.785950 274.202759,1014.997070 276.039398,1014.229187 
	C292.089935,1007.518188 308.024536,1000.529907 323.993561,993.623962 
	C324.889404,994.245544 326.066193,994.676636 326.636871,995.518555 
	C331.451599,1002.622131 336.155640,1009.800720 340.425598,1017.413696 
	C324.804260,1026.880981 309.650269,1035.891235 294.496277,1044.901611 
	C287.785980,1048.745361 281.075653,1052.589111 274.172974,1056.719360 
	C273.557648,1056.959106 273.134674,1056.912354 272.395691,1056.819092 
z"/>
<path fill="#050505" opacity="1.000000" stroke="none" 
	d="
M1632.000732,1097.008911 
	C1627.544189,1097.008911 1623.583740,1097.008911 1619.398560,1097.008911 
	C1619.398560,1040.957397 1619.398560,985.296509 1619.398560,929.389832 
	C1627.882812,929.389832 1636.110474,929.389832 1644.598145,929.389832 
	C1644.598145,985.172424 1644.598145,1040.709839 1644.598145,1097.008911 
	C1640.646240,1097.008911 1636.571533,1097.008911 1632.000732,1097.008911 
z"/>
<path fill="#010101" opacity="1.000000" stroke="none" 
	d="
M1937.499023,1016.999634 
	C1937.499146,987.550720 1937.499146,958.601868 1937.499146,929.404419 
	C1946.065918,929.404419 1954.158325,929.404419 1962.627197,929.404419 
	C1962.627197,985.005493 1962.627197,1040.697876 1962.627197,1096.695801 
	C1954.580322,1096.695801 1946.334595,1096.695801 1937.499023,1096.695801 
	C1937.499023,1070.356567 1937.499023,1043.928101 1937.499023,1016.999634 
z"/>
<path fill="#0208D5" opacity="1.000000" stroke="none" 
	d="
M371.117828,999.606934 
	C366.218384,993.164368 361.531372,986.446411 356.978699,979.452820 
	C380.146057,969.341187 403.200500,959.555054 426.206940,949.657349 
	C458.977661,935.558899 491.711670,921.375061 524.469421,907.246338 
	C525.769592,906.685669 527.152100,906.315796 528.876221,906.696472 
	C476.360870,937.574829 423.845551,968.453186 371.117828,999.606934 
z"/>
<path fill="#0208D5" opacity="1.000000" stroke="none" 
	d="
M122.344879,957.659546 
	C122.304100,957.397644 122.432823,957.222107 122.549622,957.229675 
	C122.665733,957.237305 122.769829,957.429016 122.879166,957.540039 
	C122.755821,957.635437 122.632484,957.730896 122.344879,957.659546 
z"/>
<path fill="#D0D0D0" opacity="1.000000" stroke="none" 
	d="
M65.023514,1162.031006 
	C64.906288,1162.065552 64.758476,1162.066772 64.768311,1162.002197 
	C64.925941,1161.936401 64.992943,1161.997559 65.023514,1162.031006 
z"/>
<path fill="#D0D0D0" opacity="1.000000" stroke="none" 
	d="
M484.022003,1161.983887 
	C484.168060,1162.144043 484.289490,1162.326416 484.410919,1162.508789 
	C484.297241,1162.464233 484.183594,1162.419678 484.011536,1162.215332 
	C483.953094,1162.055298 483.997375,1162.006104 484.022003,1161.983887 
z"/>
<path fill="#FEFEFE" opacity="1.000000" stroke="none" 
	d="
M323.923096,993.299072 
	C308.024536,1000.529907 292.089935,1007.518188 276.039398,1014.229187 
	C274.202759,1014.997070 271.502808,1014.785950 269.566895,1014.059387 
	C253.743958,1008.121094 238.007462,1001.952515 221.970917,995.625000 
	C238.813812,971.113098 255.930466,946.830017 273.577271,921.794922 
	C276.153412,925.211914 278.549622,928.236694 280.782806,931.377441 
	C294.638397,950.863464 308.463104,970.371399 322.270630,989.891418 
	C322.931000,990.824951 323.331268,991.942322 323.923096,993.299072 
z"/>
<path fill="#FEFEFE" opacity="1.000000" stroke="none" 
	d="
M294.868408,1044.998901 
	C309.650269,1035.891235 324.804260,1026.880981 340.278564,1017.742004 
	C343.558838,1021.084839 346.791931,1024.361206 349.433838,1028.059814 
	C364.946014,1049.777222 380.320251,1071.593140 395.870728,1093.687500 
	C396.000458,1093.999146 396.017761,1093.977295 396.017761,1093.977295 
	C394.447510,1093.528564 392.764648,1093.308350 391.323547,1092.597778 
	C359.279816,1076.796631 327.262695,1060.941284 294.868408,1044.998901 
z"/>
<path fill="#FEFEFE" opacity="1.000000" stroke="none" 
	d="
M395.989471,1094.007568 
	C396.100647,1094.154175 396.222809,1094.292236 396.344940,1094.430298 
	C396.262390,1094.375732 396.179871,1094.321167 396.057556,1094.121948 
	C396.017761,1093.977295 396.000458,1093.999146 395.989471,1094.007568 
z"/>
<path fill="#FEFEFE" opacity="1.000000" stroke="none" 
	d="
M208.070160,1014.906067 
	C223.088043,1024.303833 237.821915,1033.932983 252.799194,1043.808838 
	C251.577667,1045.077515 250.214920,1046.305786 248.632294,1047.090820 
	C227.647858,1057.500610 206.625946,1067.834717 185.627899,1078.217041 
	C176.390762,1082.784180 167.191513,1087.427979 157.961655,1092.010132 
	C156.568481,1092.701660 155.101913,1093.245483 152.909912,1092.972778 
	C171.201996,1067.027710 189.494064,1041.082642 208.070160,1014.906067 
z"/>
</svg>